<?xml version="1.0" encoding="UTF-8"?> <svg xmlns="http://www.w3.org/2000/svg" xmlns:xlink="http://www.w3.org/1999/xlink" version="1.1" id="Layer_1" x="0px" y="0px" viewBox="0 0 1080 1296" xml:space="preserve"> <g> <g> <path fill="#0B040C" d="M822.8,1101.6H257.2c-93.9,0-170.8-76.9-170.8-170.8V365.2c0-93.9,76.9-170.8,170.8-170.8h565.6 c93.9,0,170.8,76.9,170.8,170.8v565.6C993.6,1024.7,916.7,1101.6,822.8,1101.6z"></path> </g> <g> <g> <path fill="#ED2C58" d="M705,389.2c-37.2-40.9-35.1-94-35.1-94H641C645.8,321.9,660.4,363.8,705,389.2z"></path> </g> <g> <path fill="#ED2C58" d="M454.5,586.9c-46.3,0-83.9,37.6-83.9,83.9c0,33.8,20,62.9,48.7,76.2c-11-14.2-17.6-32-17.6-51.4 c0-46.3,37.6-83.9,83.9-83.9c9,0,17.7,1.4,25.8,4.1V510.8c-8.4-1.2-17-1.8-25.8-1.8c-1.8,0-3.6,0-5.4,0.1v81.8 C472.2,588.3,463.5,586.9,454.5,586.9z"></path> </g> <g> <path fill="#ED2C58" d="M781.1,430.7v82.5c0,0-62.3,8.9-141.1-44.5c0,31.8,0,63.5,0,95.3c0,64.6,8.4,131.7-21.5,191.5 c-31.3,62.6-93.8,102.4-164,102.4c-36.8,0-71.1-10.6-100-29c33.7,33.3,80,53.8,131.1,53.8c70.3,0,132.7-39.8,164-102.4 c29.9-59.8,21.5-126.9,21.5-191.5c0-31.8,0-63.5,0-95.3c78.8,53.4,141.1,44.5,141.1,44.5V435C801,434.2,790.7,432.7,781.1,430.7z "></path> </g> <g> <path fill="#00B8BD" d="M781.1,430.7v-20.5c-32-2.2-56.9-10.1-76.1-21C721.5,407.3,745.7,423.1,781.1,430.7z"></path> </g> <g> <path fill="#00B7BC" d="M298.9,695.8c0-101.4,80.8-183.9,181.5-186.7V486c-8.4-1.2-17-1.8-25.8-1.8 c-103.2,0-186.8,83.6-186.8,186.8c0,66.4,34.6,124.7,86.8,157.8C320.2,795,298.9,747.9,298.9,695.8z"></path> </g> <g> <path fill="#00B7BC" d="M485.7,779.4c45.6,0,79.7-35.6,83-79.5c4.2-56.7,2.1-113.6,2.1-170.4c0-5.3,0-234.2,0-234.2H641 c-2.6-14.7-2.2-24.8-2.2-24.8h-99.1c0,0,0,228.9,0,234.2c0,56.8,2.1,113.7-2.1,170.4c-3.3,44-37.4,79.5-83,79.5 c-12.6,0-24.4-2.8-35.1-7.7C434.7,766.7,458.7,779.4,485.7,779.4z"></path> </g> <g> <path fill="#FFFFFF" d="M618.6,755.5c29.9-59.8,21.5-126.9,21.5-191.5c0-31.8,0-63.5,0-95.3c78.8,53.4,141.1,44.5,141.1,44.5 v-82.5c-35.5-7.6-59.6-23.4-76.1-41.5c-44.7-25.4-59.3-67.3-64-94h-70.2c0,0,0,228.9,0,234.2c0,56.8,2.1,113.7-2.1,170.4 c-3.3,44-37.4,79.5-83,79.5c-27,0-50.9-12.7-66.3-32.5c-28.8-13.3-48.7-42.4-48.7-76.2c0-46.3,37.6-83.9,83.9-83.9 c9,0,17.7,1.4,25.8,4.1v-81.8c-100.7,2.8-181.5,85.3-181.5,186.7c0,52.1,21.3,99.1,55.7,133c28.9,18.4,63.2,29,100,29 C524.8,857.9,587.2,818.1,618.6,755.5z"></path> </g> </g> <g> <g> <polygon fill="#FFFFFF" points="267.1,907.7 267.1,934.4 296.3,934.4 296.3,1027.8 326.8,1027.8 326.8,935.1 350.3,935.1 360.5,907.7 "></polygon> </g> <g> <polygon fill="#FFFFFF" points="508.5,907.7 508.5,934.4 537.8,934.4 537.8,1027.8 568.3,1027.8 568.3,935.1 591.8,935.1 602,907.7 "></polygon> </g> <g> <rect x="363" y="947.8" fill="#FFFFFF" width="30.5" height="80.1"></rect> </g> <g> <circle fill="#FFFFFF" cx="378.3" cy="923" r="15.2"></circle> </g> <g> <path fill="#FFFFFF" d="M403.1,907.7v120.1c0,0,29.5-1,30.5,0s0-29.2,0-29.2l10.2-8.3l25.4,37.5h32.4l-40.7-57.2l36.9-32.4h-36.2 l-26.7,26.1v-56.6H403.1z"></path> </g> <g> <path fill="#FFFFFF" d="M714.4,907.7v120.1c0,0,29.5-1,30.5,0c1,1,0-29.2,0-29.2l10.2-8.3l25.4,37.5h32.4l-40.7-57.2l36.9-32.4 h-36.2l-26.7,26.1v-56.6H714.4z"></path> </g> <g> <g> <path fill="#00B9BF" d="M596.9,979.2c0-27.1,21-49.2,47.7-51c-1.2-0.1-2.3-0.1-3.5-0.1c-28.2,0-51.1,22.9-51.1,51.1 s22.9,51.1,51.1,51.1c1.2,0,2.3-0.1,3.5-0.1C617.9,1028.4,596.9,1006.3,596.9,979.2z"></path> </g> <g> <path fill="#ED2D58" d="M653.1,928.1c-0.9,0-1.7,0-2.5,0.1c27.1,1.3,48.6,23.7,48.6,51.1c0,27.4-21.5,49.8-48.6,51.1 c0.8,0,1.7,0.1,2.5,0.1c28.2,0,51.1-22.9,51.1-51.1S681.3,928.1,653.1,928.1z"></path> </g> <g> <path fill="#FFFFFF" d="M650.6,928.1c-0.8,0-1.7-0.1-2.5-0.1c-1.2,0-2.3,0.1-3.5,0.1c-26.6,1.8-47.7,23.9-47.7,51 c0,27.1,21,49.2,47.7,51c1.2,0.1,2.3,0.1,3.5,0.1c0.9,0,1.7,0,2.5-0.1c27.1-1.3,48.6-23.7,48.6-51.1 C699.2,951.8,677.6,929.5,650.6,928.1z M625.5,979.2c0-11.2,8.2-20.5,19-22.2c1.1-0.2,2.3-0.3,3.5-0.3c0.9,0,1.7,0.1,2.5,0.2 c11.2,1.3,20,10.8,20,22.4c0,11.6-8.7,21.1-20,22.4c-0.8,0.1-1.7,0.2-2.5,0.2c-1.2,0-2.4-0.1-3.5-0.3 C633.8,999.7,625.5,990.5,625.5,979.2z"></path> </g> </g> </g> </g> </svg> 